<?xml version="1.0" encoding="UTF-8"?>
<!DOCTYPE svg PUBLIC "-//W3C//DTD SVG 1.1//EN" "http://www.w3.org/Graphics/SVG/1.1/DTD/svg11.dtd">
<!-- Creator: CorelDRAW -->
<svg xmlns="http://www.w3.org/2000/svg" xml:space="preserve" width="512px" height="512px" version="1.1" style="shape-rendering:geometricPrecision; text-rendering:geometricPrecision; image-rendering:optimizeQuality; fill-rule:evenodd; clip-rule:evenodd"
viewBox="0 0 512 512"
 xmlns:xlink="http://www.w3.org/1999/xlink">
 <defs>
  <style type="text/css">
   <![CDATA[
    .fil0 {fill:black}
   ]]>
  </style>
 </defs>
 <g id="Layer_x0020_1">
  <metadata id="CorelCorpID_0Corel-Layer"/>
  <g id="_231560632">
   <g>
    <g>
     <g id="_231560872">
      <path class="fil0" d="M256 191c-35,0 -64,-29 -64,-64 0,-36 29,-64 64,-64 35,0 64,28 64,64 0,35 -29,64 -64,64zm0 -114c-28,0 -50,22 -50,50 0,27 22,50 50,50 28,0 50,-23 50,-50 0,-28 -22,-50 -50,-50z"/>
     </g>
     <g>
      <g id="_231560848">
       <path class="fil0" d="M256 512c-45,0 -87,-7 -120,-20 -34,-14 -52,-34 -52,-55 0,-11 5,-22 15,-31 3,-3 8,-3 10,0 3,3 3,7 0,10 -7,7 -11,14 -11,21 0,15 16,30 44,42 30,12 71,19 114,19 43,0 84,-7 114,-19 28,-12 44,-27 44,-42 0,-7 -3,-14 -11,-21 -3,-3 -3,-7 0,-10 2,-3 7,-3 10,0 10,9 15,20 15,31 0,21 -18,41 -52,55 -33,13 -75,20 -120,20z"/>
      </g>
      <g>
       <g id="_231560752">
        <path class="fil0" d="M99 418c-10,0 -19,-4 -25,-12 -11,-15 -9,-35 5,-46 9,-6 17,-11 24,-16 19,-12 29,-19 41,-54 10,-27 25,-48 43,-61 18,-14 42,-21 69,-21 4,0 7,3 7,7 0,4 -3,7 -7,7 -49,0 -80,23 -98,73 -15,39 -27,47 -48,61 -6,4 -13,9 -22,16 -4,2 -6,7 -7,12 -1,4 1,9 4,13 3,4 7,6 12,7 5,1 9,-1 13,-4l8 -6c0,0 1,0 1,0l68 -52c2,-2 5,-2 7,-1 3,1 4,3 4,6l0 53c0,3 -3,7 -7,7l-66 0 -6 5c-6,4 -13,6 -20,6zm44 -25l41 0 0 -32 -41 32z"/>
       </g>
       <g id="_231561112">
        <path class="fil0" d="M413 418c-7,0 -14,-2 -20,-6l-6 -5 -66 0c-4,0 -7,-4 -7,-7l0 -53c0,-3 1,-5 4,-6 2,-1 5,-1 7,1l77 58c8,7 19,5 25,-3 6,-8 5,-19 -3,-25 -9,-7 -16,-12 -22,-16 -21,-14 -33,-22 -48,-61 -18,-50 -49,-73 -98,-73 -4,0 -7,-3 -7,-7 0,-4 3,-7 7,-7 27,0 51,7 69,21 18,13 33,34 43,61 12,35 22,42 41,54 7,5 15,10 24,16 6,6 11,13 12,22 1,8 -1,17 -7,24 -5,6 -12,11 -21,12 -1,0 -3,0 -4,0zm-85 -25l41 0 -41 -32 0 32z"/>
       </g>
      </g>
     </g>
    </g>
    <g id="_231561136">
     <path class="fil0" d="M363 306c-1,0 -3,-1 -5,-2 -2,-3 -2,-8 1,-10 35,-30 56,-74 56,-121 0,-88 -71,-159 -159,-159 -88,0 -159,71 -159,159 0,47 21,91 56,121 3,2 3,7 1,10 -3,3 -7,3 -10,0 -39,-32 -61,-80 -61,-131 0,-95 78,-173 173,-173 95,0 173,78 173,173 0,51 -22,99 -61,131 -1,2 -3,2 -5,2z"/>
    </g>
   </g>
  </g>
 </g>
</svg>
